<?xml version="1.0" encoding="utf-8"?>
<!-- Generator: Adobe Illustrator 21.0.2, SVG Export Plug-In . SVG Version: 6.00 Build 0)  -->
<svg version="1.1" id="Layer_2" xmlns="http://www.w3.org/2000/svg" xmlns:xlink="http://www.w3.org/1999/xlink" x="0px" y="0px"
	 viewBox="0 0 144 144" style="enable-background:new 0 0 144 144;" xml:space="preserve">
<path d="M61.8,74.6l1.7-10.2l1.8-0.3l-0.2,1.2c0,0-0.1,0-0.2,0.4c-0.1,0.4-0.1,0.7-0.1,0.7l-0.5,2.3c0,0,0,0.3,0.1,0.4
	c-0.2,1.1-0.2,1.1-0.2,1.1L64,71l-0.7,3.2L61.8,74.6z"/>
<path d="M69,63.4L65.3,64l-0.2,1.2l2.7-0.7c0,0,0.5-0.1,0.4,0.4c1.8-1.3,1.8-1.3,1.8-1.3S69.7,63.2,69,63.4z"/>
<polygon points="69,72.8 70.5,72.4 68.7,68.5 67.5,69.3 "/>
<path d="M67.5,69.3l1.3-0.8l-1.1-0.3c0,0-3.1,0.9-3.1,0.8c0-0.1-0.2,1.1-0.2,1.1L67.5,69.3z"/>
<path d="M67.6,68.2l1.1,0.3c0,0,1.2,0,1.4-2.5c0.1-0.7,0.1-0.7,0.1-0.7s0.1-1.3-0.2-1.6c-1.8,1.3-1.8,1.3-1.8,1.3
	S68.5,67.6,67.6,68.2z"/>
<path d="M66.6,66.7l-0.3,1.5c0,0,0,0.1,1.2-0.4c0.1-0.1,0.4-1,0.5-1.5"/>
<polygon points="73,63.3 71.7,71.9 73,71.6 73.2,70.4 74.2,64.3 74.2,63 "/>
<path d="M77.9,70.4l-0.6-1c0,0-0.1,0.2-1.4,0.4c-2.2,0.5-2.2,0.5-2.2,0.5l-0.3,0c0,0-0.1,0-0.2-0.1c0,0.3-0.2,1.3-0.2,1.3l3.2-0.8
	C76.2,70.8,78,70.5,77.9,70.4z"/>
<path d="M77.8,62.4l-0.1,1.4c0,0,0.5,0.3,0.5,0.7c0,0.6,0,0.6,0,0.6l0,0.4c0,0-0.3,2.8-0.5,3.2c-0.1,0.3-0.2,0.7-0.4,0.8
	c0.6,1,0.6,1,0.6,1s0.9-0.3,1.2-1.4c0.1-0.6,0.1-0.6,0.1-0.6s0.5-3.2,0.5-3.5c0-1.1,0-1.1,0-1.1s-0.2-1.1-0.8-1.3
	S77.8,62.4,77.8,62.4z"/>
<path d="M77.8,62.4l0,1.4c0.1,0.1,0.2-0.1-0.8,0c-1,0.1-1.1,0.1-1,0.1l-1.7,0.3c0,0-0.1,0-0.1,0.1c0,0.1,0.1-1.3,0.1-1.3l0.2,0"/>
<path d="M75.7,65.6l-0.8,4.1l1.6-0.3c0,0,0.6-0.1,0.7-0.8c0.3-1.1,0.3-1.1,0.3-1.1s0.2-1.2,0.2-1.7c0-0.5,0-0.5,0-0.5s0-0.1-0.1-0.1
	C77.3,65.3,75.7,65.6,75.7,65.6z"/>
<g>
	<path d="M82.8,68.9c0,0,0,1.1-0.7,2.1c-0.7,1-2.5,2.2-2.5,2.2s0,0-0.1-1c0.7-0.2,0.8-0.8,0.8-0.8l1-5.5
		C81.4,65.9,82.9,67.1,82.8,68.9z"/>
	<path d="M69.9,74.5v0.6c0,0,5.1,0.6,9.8-1.9c-0.1-1-0.1-1-0.1-1S77.5,74,69.9,74.5z"/>
	<path d="M79.1,72.3c0,0-7.9,1.9-9.2,2.1c0.4,0,1,0,1.8-0.1c0.8-0.1,1.8-0.2,2.8-0.4c2.1-0.4,4.3-1,5.1-1.9"/>
</g>
<path d="M65.9,71l1.7-0.4c0,0,0.1,0,0.2,0.2c0.9,2.1,0.9,2.1,0.9,2.1l1,1.5c0,0,0.1,0.1,0.2,0.1c0,0.6,0,0.6,0,0.6s-2,0.1-4.7-0.9"
	/>
<path d="M63.2,64.4l-1.4,8.1C61.8,72.5,55.9,68.3,63.2,64.4z"/>
<path d="M69.9,74.5"/>
<polygon points="70.5,69.1 71.4,70.9 71.9,68.3 "/>
<path d="M72.7,63.1l-0.8,5.3c0,0,0,0-1.4,0.8c2.4-2.7,0.9-5.1,0.9-5.1s-1.4-1.1-1.7-1c0-0.5,0-0.5,0-0.5s3.4-0.1,4.2,0.1"/>
<path d="M69.7,63.1c0,0-1.2,0-5.8,0.9c0,0,2.2-1.2,5.8-1.4c0,0.5,0,0,0,0"/>
</svg>
