<?xml version="1.0" encoding="utf-8"?>
<!-- Generator: Adobe Illustrator 21.0.2, SVG Export Plug-In . SVG Version: 6.00 Build 0)  -->
<svg version="1.1" id="Layer_1" xmlns="http://www.w3.org/2000/svg" xmlns:xlink="http://www.w3.org/1999/xlink" x="0px" y="0px"
	 viewBox="0 0 144 144" style="enable-background:new 0 0 144 144;" xml:space="preserve">
<style type="text/css">
	.st0{fill:#FFFFFF;}
</style>
<g>
	<g>
		<path class="st0" d="M37.9,88.6c0-19.8,0-39.5,0-59.3c19.3,0,38.6,0,57.9,0c0,19.8,0,39.5,0,59.3C76.5,88.6,57.2,88.6,37.9,88.6z
			 M66.8,39.2c-6.5,0-13.1,0-19.6,0c-4,0-6.7,2.6-6.7,6.6c0,8.8,0,17.6,0,26.4c0,3.7,2.7,6.4,6.4,6.4c13.2,0,26.5,0,39.7,0
			c3.7,0,6.4-2.8,6.4-6.4c0-8.8,0-17.6,0-26.4c0-4-2.7-6.6-6.7-6.6C79.7,39.2,73.2,39.2,66.8,39.2z"/>
		<path d="M66.8,39.2c6.5,0,12.9,0,19.4,0c4,0,6.7,2.6,6.7,6.6c0,8.8,0,17.6,0,26.4c0,3.7-2.7,6.4-6.4,6.4c-13.2,0-26.5,0-39.7,0
			c-3.7,0-6.4-2.7-6.4-6.4c0-8.8,0-17.6,0-26.4c0-4,2.7-6.6,6.7-6.6C53.7,39.2,60.2,39.2,66.8,39.2z M45.3,46.8
			c0,0.7-0.1,1.1-0.1,1.5c0,7.7,0,15.5,0,23.2c0,1.9,0.4,2.3,2.4,2.3c12.7,0,25.4,0,38.2,0c2,0,2.4-0.4,2.4-2.4c0-7.3,0-14.6,0-21.9
			c0-0.4-0.1-0.8-0.1-1.4c-0.5,0.4-0.9,0.6-1.3,0.9c-2.9,2.1-5.7,4.2-8.6,6.3c-3.5,2.5-6.9,5.1-10.4,7.6c-0.7,0.6-1.3,0.7-2,0
			c-0.5-0.5-1.1-1-1.6-1.5c-1.8-1.4-3.6-2.7-5.4-4.1c-1.9-1.5-3.9-2.9-5.8-4.4C50.5,51,48,49,45.3,46.8z M85.2,44.4
			c-11.9,0-23.5,0-35.1,0c0.1,0.2,0.2,0.3,0.3,0.4c5.3,4.1,10.6,8.1,15.9,12.2c0.6,0.5,1.1,0.4,1.6-0.1c4-2.9,8-5.9,12-8.8
			C81.5,46.9,83.2,45.7,85.2,44.4z"/>
		<path class="st0" d="M45.3,46.8C48,49,50.5,51,53.1,53c1.9,1.5,3.9,3,5.8,4.4c1.8,1.4,3.6,2.7,5.4,4.1c0.6,0.4,1.1,1,1.6,1.5
			c0.7,0.7,1.3,0.6,2,0c3.4-2.6,6.9-5.1,10.4-7.6c2.9-2.1,5.7-4.2,8.6-6.3c0.4-0.3,0.7-0.5,1.3-0.9c0,0.6,0.1,1,0.1,1.4
			c0,7.3,0,14.6,0,21.9c0,2-0.4,2.4-2.4,2.4c-12.7,0-25.4,0-38.2,0c-2,0-2.4-0.4-2.4-2.3c0-7.7,0-15.5,0-23.2
			C45.2,47.9,45.2,47.5,45.3,46.8z"/>
		<path class="st0" d="M85.2,44.4c-1.9,1.4-3.7,2.6-5.3,3.8c-4,2.9-8,5.8-12,8.8c-0.6,0.4-1,0.6-1.6,0.1
			c-5.3-4.1-10.6-8.2-15.9-12.2c-0.1-0.1-0.1-0.2-0.3-0.4C61.7,44.4,73.3,44.4,85.2,44.4z"/>
	</g>
</g>
</svg>
